HIERARCHY
ROOT hips
{
  OFFSET 0 10.6860622 2.3727825e-15
  CHANNELS 6 Xposition Yposition Zposition Yrotation Xrotation Zrotation
  JOINT leftUpperLeg
  {
    OFFSET 0.6642549969 -0.9402397400000004 0
    CHANNELS 3 Yrotation Xrotation Zrotation
    JOINT leftLowerLeg
    {
      OFFSET 0 -3.997221335632195 0
      CHANNELS 3 Yrotation Xrotation Zrotation
      JOINT leftFoot
      {
        OFFSET -0.13777839790000004 -4.6145792000000005 -0.22186036399999998
        CHANNELS 3 Yrotation Xrotation Zrotation
        JOINT leftToes
        {
          OFFSET -0.03777410834999995 -0.9130806927000008 0.85230013
          CHANNELS 3 Yrotation Xrotation Zrotation
          End Site
          {
            OFFSET -0.03777410834999995 -0.9130806927000008 0.85230013
          }
        }
      }
    }
  }
  JOINT rightUpperLeg
  {
    OFFSET -0.6642778626 -0.9402397400000004 0
    CHANNELS 3 Yrotation Xrotation Zrotation
    JOINT rightLowerLeg
    {
      OFFSET 0 -3.997221452859387 0
      CHANNELS 3 Yrotation Xrotation Zrotation
      JOINT rightFoot
      {
        OFFSET 0.1377926176 -4.6145792000000005 -0.22185782299999995
        CHANNELS 3 Yrotation Xrotation Zrotation
        JOINT rightToes
        {
          OFFSET 0.037780746850000047 -0.9130806927000008 0.85230167
          CHANNELS 3 Yrotation Xrotation Zrotation
          End Site
          {
            OFFSET 0.037780746850000047 -0.9130806927000008 0.85230167
          }
        }
      }
    }
  }
  JOINT spine
  {
    OFFSET 0 0.13988381660000015 0
    CHANNELS 3 Yrotation Xrotation Zrotation
    JOINT chest
    {
      OFFSET 0 0.6191039003973773 0
      CHANNELS 3 Yrotation Xrotation Zrotation
      JOINT upperChest
      {
        OFFSET 0 0.9855186130586943 0
        CHANNELS 3 Yrotation Xrotation Zrotation
        JOINT leftShoulder
        {
          OFFSET 0.1807663869 1.5087829790000005 0
          CHANNELS 3 Yrotation Xrotation Zrotation
          JOINT leftUpperArm
          {
            OFFSET 0.5985063006419806 0 0
            CHANNELS 3 Yrotation Xrotation Zrotation
            JOINT leftLowerArm
            {
              OFFSET 2.2993332369501065 0 0
              CHANNELS 3 Yrotation Xrotation Zrotation
              JOINT leftHand
              {
                OFFSET 2.395047042602395 0 0
                CHANNELS 3 Yrotation Xrotation Zrotation
                JOINT leftIndexProximal
                {
                  OFFSET 0.5766295810000004 0.04556643899499946 0.17265095988184
                  CHANNELS 3 Yrotation Xrotation Zrotation
                  JOINT leftIndexIntermediate
                  {
                    OFFSET 0.2957229000000008 -0.019352197700001517 -0.007932640616999987
                    CHANNELS 3 Yrotation Xrotation Zrotation
                    JOINT leftIndexDistal
                    {
                      OFFSET 0.19008243099999922 -0.012484908149998475 -0.002786250786000012
                      CHANNELS 3 Yrotation Xrotation Zrotation
                      End Site
                      {
                        OFFSET 0.19008243099999922 -0.012484908149998475 -0.002786250786000012
                      }
                    }
                  }
                }
                JOINT leftMiddleProximal
                {
                  OFFSET 0.5834975091000001 0.0524350405149987 0.02204081888183999
                  CHANNELS 3 Yrotation Xrotation Zrotation
                  JOINT leftMiddleIntermediate
                  {
                    OFFSET 0.33880573540000003 -0.019871473270000717 -0.00000971183179999946
                    CHANNELS 3 Yrotation Xrotation Zrotation
                    JOINT leftMiddleDistal
                    {
                      OFFSET 0.20676022730000088 -0.012221336379999448 0.0001471936708000235
                      CHANNELS 3 Yrotation Xrotation Zrotation
                      End Site
                      {
                        OFFSET 0.20676022730000088 -0.012221336379999448 0.0001471936708000235
                      }
                    }
                  }
                }
                JOINT leftLittleProximal
                {
                  OFFSET 0.5344154683999995 -0.012880921405001189 -0.24414037221816004
                  CHANNELS 3 Yrotation Xrotation Zrotation
                  JOINT leftLittleIntermediate
                  {
                    OFFSET 0.21758961730000093 -0.011650919939999227 0.011893592810000034
                    CHANNELS 3 Yrotation Xrotation Zrotation
                    JOINT leftLittleDistal
                    {
                      OFFSET 0.1475273964999999 -0.008152365682999818 0.006001092492999946
                      CHANNELS 3 Yrotation Xrotation Zrotation
                      End Site
                      {
                        OFFSET 0.1475273964999999 -0.008152365682999818 0.006001092492999946
                      }
                    }
                  }
                }
                JOINT leftRingProximal
                {
                  OFFSET 0.5799399463000003 0.026911854694997794 -0.12150566991816003
                  CHANNELS 3 Yrotation Xrotation Zrotation
                  JOINT leftRingIntermediate
                  {
                    OFFSET 0.26167887460000006 -0.013480186499999602 0.010996293000000053
                    CHANNELS 3 Yrotation Xrotation Zrotation
                    JOINT leftRingDistal
                    {
                      OFFSET 0.17667108799999987 -0.008990287899999228 0.0055541023999999065
                      CHANNELS 3 Yrotation Xrotation Zrotation
                      End Site
                      {
                        OFFSET 0.17667108799999987 -0.008990287899999228 0.0055541023999999065
                      }
                    }
                  }
                }
                JOINT leftThumbProximal
                {
                  OFFSET 0.11018806699999972 -0.09448718900500053 0.17047963138184
                  CHANNELS 3 Yrotation Xrotation Zrotation
                  JOINT leftThumbIntermediate
                  {
                    OFFSET 0.31062601459999983 -0.08126270900000132 0.15443142000000007
                    CHANNELS 3 Yrotation Xrotation Zrotation
                    JOINT leftThumbDistal
                    {
                      OFFSET 0.21627175790000086 -0.08833193599999878 0.018771167799999988
                      CHANNELS 3 Yrotation Xrotation Zrotation
                      End Site
                      {
                        OFFSET 0.21627175790000086 -0.08833193599999878 0.018771167799999988
                      }
                    }
                  }
                }
              }
            }
          }
        }
        JOINT neck
        {
          OFFSET 0 1.5463305265074576 0
          CHANNELS 3 Yrotation Xrotation Zrotation
          JOINT head
          {
            OFFSET 0 0.8456443600000344 0
            CHANNELS 3 Yrotation Xrotation Zrotation
            JOINT leftEye
            {
              OFFSET 0.30408573140000006 0.5104519199999995 0.1276382305
              CHANNELS 3 Yrotation Xrotation Zrotation
              End Site
              {
                OFFSET 0.30408573140000006 0.5104519199999995 0.1276382305
              }
            }
            JOINT rightEye
            {
              OFFSET -0.30409491089999996 0.5104519199999995 0.1276379445
              CHANNELS 3 Yrotation Xrotation Zrotation
              End Site
              {
                OFFSET -0.30409491089999996 0.5104519199999995 0.1276379445
              }
            }
            JOINT jaw
            {
              OFFSET -3.155239131000001e-7 -0.11984121820000082 0.60178107
              CHANNELS 3 Yrotation Xrotation Zrotation
              End Site
              {
                OFFSET -3.155239131000001e-7 -0.11984121820000082 0.60178107
              }
            }
          }
        }
        JOINT rightShoulder
        {
          OFFSET -0.1807303465 1.5087829790000005 0
          CHANNELS 3 Yrotation Xrotation Zrotation
          JOINT rightUpperArm
          {
            OFFSET -0.5985063796536958 0 0
            CHANNELS 3 Yrotation Xrotation Zrotation
            JOINT rightLowerArm
            {
              OFFSET -2.2993322059002854 0 0
              CHANNELS 3 Yrotation Xrotation Zrotation
              JOINT rightHand
              {
                OFFSET -2.395045314457259 0 0
                CHANNELS 3 Yrotation Xrotation Zrotation
                JOINT rightIndexProximal
                {
                  OFFSET -0.5764487688300002 0.0441371204405987 0.17361932004999997
                  CHANNELS 3 Yrotation Xrotation Zrotation
                  JOINT rightIndexIntermediate
                  {
                    OFFSET -0.29573011380000047 -0.01934826376999843 -0.007698921482999974
                    CHANNELS 3 Yrotation Xrotation Zrotation
                    JOINT rightIndexDistal
                    {
                      OFFSET -0.19008373999999884 -0.012503266380000655 -0.0026365778999999897
                      CHANNELS 3 Yrotation Xrotation Zrotation
                      End Site
                      {
                        OFFSET -0.19008373999999884 -0.012503266380000655 -0.0026365778999999897
                      }
                    }
                  }
                }
                JOINT rightMiddleProximal
                {
                  OFFSET -0.5834852037300005 0.05211639405060153 0.02307162440000001
                  CHANNELS 3 Yrotation Xrotation Zrotation
                  JOINT rightMiddleIntermediate
                  {
                    OFFSET -0.33880114510000003 -0.019952774050000954 0.0002455003561999819
                    CHANNELS 3 Yrotation Xrotation Zrotation
                    JOINT rightMiddleDistal
                    {
                      OFFSET -0.20675694929999955 -0.012273788999999091 0.00030209124000002766
                      CHANNELS 3 Yrotation Xrotation Zrotation
                      End Site
                      {
                        OFFSET -0.20675694929999955 -0.012273788999999091 0.00030209124000002766
                      }
                    }
                  }
                }
                JOINT rightLittleProximal
                {
                  OFFSET -0.5346811737299992 -0.011214256288399227 -0.24363941305000003
                  CHANNELS 3 Yrotation Xrotation Zrotation
                  JOINT rightLittleIntermediate
                  {
                    OFFSET -0.21757715980000092 -0.011771559690000988 0.01201554387
                    CHANNELS 3 Yrotation Xrotation Zrotation
                    JOINT rightLittleDistal
                    {
                      OFFSET -0.1475201849000004 -0.00822055339600003 0.006082065407000015
                      CHANNELS 3 Yrotation Xrotation Zrotation
                      End Site
                      {
                        OFFSET -0.1475201849000004 -0.00822055339600003 0.006082065407000015
                      }
                    }
                  }
                }
                JOINT rightRingProximal
                {
                  OFFSET -0.5800810755299999 0.027657985680600072 -0.12066365025000003
                  CHANNELS 3 Yrotation Xrotation Zrotation
                  JOINT rightRingIntermediate
                  {
                    OFFSET -0.26166445029999974 -0.013623118409999302 0.011164098990000045
                    CHANNELS 3 Yrotation Xrotation Zrotation
                    JOINT rightRingDistal
                    {
                      OFFSET -0.17666387530000027 -0.009072900100000503 0.005668185599999959
                      CHANNELS 3 Yrotation Xrotation Zrotation
                      End Site
                      {
                        OFFSET -0.17666387530000027 -0.009072900100000503 0.005668185599999959
                      }
                    }
                  }
                }
                JOINT rightThumbProximal
                {
                  OFFSET -0.10997596379000074 -0.09577489355940072 0.16989765924999997
                  CHANNELS 3 Yrotation Xrotation Zrotation
                  JOINT rightThumbIntermediate
                  {
                    OFFSET -0.31036620999999986 -0.08229339117999834 0.15440884469999996
                    CHANNELS 3 Yrotation Xrotation Zrotation
                    JOINT rightThumbDistal
                    {
                      OFFSET -0.21631306399999906 -0.08825326400000111 0.018656797720000014
                      CHANNELS 3 Yrotation Xrotation Zrotation
                      End Site
                      {
                        OFFSET -0.21631306399999906 -0.08825326400000111 0.018656797720000014
                      }
                    }
                  }
                }
              }
            }
          }
        }
      }
    }
  }
}
MOTION
Frames: 9
Frame Time: 0.03333333333333333
0 11.682712981546562 0 0 0 0 0 0 -5.826343164929014 -0.3712483961610101 -3.6333298826370974 5.838118207697276 0 0 0 0 0 0 0 0 5.826343164929014 0.3712483961610101 -3.6333298826370974 -5.838118207697276 0 0 0 0 0 0 0 -4.610651315171937 0 0 3.0831277533083026 0 0 0 0 0 1.5275236235667615 0 0 0 0 0 0 0 0 0 0 0 0 0 0 0 0 0 0 0 0 0 0 0 0 0 0 0 0 0 0 0 0 0 0 0 0 0 0 0 0 0 0 0 0 0 0 0 0 0 0 0 0 0 0 0 0 1.5275236235667615 0 0 0 0 0 0 0 0 0 0 0 0 0 0 1.5275236235667615 0 0 0 0 0 0 0 0 0 0 0 0 0 0 0 0 0 0 0 0 0 0 0 0 0 0 0 0 0 0 0 0 0 0 0 0 0 0 0 0 0 0 0 0 0 0 0 0 0 0 0 0 0 0 0
-0.14592112041731564 -8.060994660292991 -5.4263970788528555 0.02205965255842789 71.99674449604836 0.009542587553187874 42.18150093324145 -46.653218314436884 11.24663349405701 51.60020805250308 31.65959900702234 54.31104489743047 -22.182793824651892 54.369756411516256 1.903030622234341 0 0 0 -42.21248027615367 -46.66054242463084 -11.232377036689812 -51.60054451806255 31.64930431886758 -54.32610492048601 22.19710892185265 54.36311496362745 -1.9210395015583612 0 0 0 -0.06883069996880449 -18.949521768695615 -0.06802883923082328 -1.0335240831883508 55.68252304316155 -1.2106244711557037 0 0 0 21.962821072480843 -15.067028856766228 -5.104947339026583 -65.5451165690829 0.6485310784573234 3.1620342738219716 -43.28239593897002 -1.7894988890277825 18.730417811475878 3.4967682213189386 -10.676925445889617 55.58913521236814 0 0 0 0 0 0 0 0 0 0 0 0 0 0 0 0 0 0 0 0 0 0 0 0 0 0 0 0 0 0 0 0 0 0 0 0 0 0 0 0 0 0 0 0 0 0 -40.4750195596723 0 0 2.9991060953440054 0 0 0 0 0 0 0 0 0 0 -20.252513042363816 -15.871576703812684 4.580403107900229 63.72955596887024 0.4585123445937788 -1.3106420061730337 50.70826229326584 1.253954212250926 -21.514860363307488 -11.646290918804143 -9.726098440165208 -53.452988791740395 0 0 0 0 0 0 0 0 0 0 0 0 0 0 0 0 0 0 0 0 0 0 0 0 0 0 0 0 0 0 0 0 0 0 0 0 0 0 0 0 0 0 0 0 0
-0.14592112041731564 -8.052843318621154 -5.431502973422182 0.02205964830420402 71.99673344650564 0.009542583015249104 42.20527823070446 -46.778062966173444 11.130377312256435 51.60020805250308 31.65959900702234 54.31104489743047 -22.182791611266374 54.369756411516256 1.9030309884259433 0 0 0 -42.23611906417443 -46.785523743513245 -11.116310585181983 -51.60054137406672 31.64930030713032 -54.32609932202454 22.197103993987334 54.36310910227664 -1.9210429663582826 0 0 0 -0.06872605090421052 -18.644347179726143 -0.06839838905410164 -1.0205452246790292 55.184327353475226 -1.194870986484929 0 0 0 22.05550100217399 -14.93902715087465 -5.1600317499703365 -65.5451165690829 0.6485310784573234 3.1620342738219716 -43.28239593897002 -1.7894988890277825 18.730417811475878 3.4967684381183104 -10.676924577074603 55.58913521236814 0 0 0 0 0 0 0 0 0 0 0 0 0 0 0 0 0 0 0 0 0 0 0 0 0 0 0 0 0 0 0 0 0 0 0 0 0 0 0 0 0 0 0 0 0 0 -39.38279736045721 0 0 1.9332394773071162 0 0 0 0 0 0 0 0 0 0 -20.314061412037738 -15.737135782617184 4.626981549842751 63.72955596887024 0.4585123445937788 -1.3106420061730337 50.70825964958341 1.2539546392400047 -21.514860363307488 -11.646290918804143 -9.726098440165208 -53.452988791740395 0 0 0 0 0 0 0 0 0 0 0 0 0 0 0 0 0 0 0 0 0 0 0 0 0 0 0 0 0 0 0 0 0 0 0 0 0 0 0 0 0 0 0 0 0
-0.14592112041731564 -8.044691976949316 -5.436608867991508 0.022059644049981793 71.99673344650564 0.009542578477312085 42.229484641935535 -46.90287785385232 11.013775421984466 51.60020805250308 31.65959900702234 54.31104489743047 -22.182791611266374 54.369750549217535 1.903031159942012 0 0 0 -42.260179932752884 -46.910475965359325 -10.999895071159587 -51.60053573821903 31.64930030713032 -54.326097692558676 22.19710042286367 54.36310910227664 -1.9210464311574809 0 0 0 -0.06862367442811299 -18.339173169791994 -0.06876669494355162 -1.007963309074111 54.686122122490204 -1.179506758417401 0 0 0 22.147998495019937 -14.810940969934459 -5.214869185999977 -65.5451165690829 0.6485320923784794 3.1620342738219716 -43.28239593897002 -1.7894988890277825 18.730417811475878 3.4967684381183104 -10.676924577074603 55.58913038130549 0 0 0 0 0 0 0 0 0 0 0 0 0 0 0 0 0 0 0 0 0 0 0 0 0 0 0 0 0 0 0 0 0 0 0 0 0 0 0 0 0 0 0 0 0 0 -38.29057623071619 0 0 0.8673730256510735 0 0 0 0 0 0 0 0 0 0 -20.375457992952853 -15.602647182941102 4.673379682589401 63.72955596887024 0.45851239795634047 -1.3106414726870372 50.70825964958341 1.2539550662290835 -21.514860363307488 -11.646290918804143 -9.726098440165208 -53.452988791740395 0 0 0 0 0 0 0 0 0 0 0 0 0 0 0 0 0 0 0 0 0 0 0 0 0 0 0 0 0 0 0 0 0 0 0 0 0 0 0 0 0 0 0 0 0
-0.14592112041731564 -8.028389561997916 -5.44682038873789 0.02205965255842789 71.99674449604836 0.009542587553187874 42.27920045811611 -47.15243494887982 10.779488883252888 51.60021119683288 31.659603019204187 54.31105141478703 -22.182793824651892 54.369762273815816 1.9030289859516405 0 0 0 -42.309618349766474 -47.16032482522176 -10.765977478202654 -51.60054451806255 31.64930431886758 -54.32610492048601 22.197110278593673 54.36311496362745 -1.9210400507511962 0 0 0 -0.0684258424947436 -17.728557538289863 -0.06949932646950119 -0.9838981198088264 53.688488163433604 -1.1498469997999283 0 0 0 22.33248466065491 -14.55448499783245 -5.323820274379955 -65.54513183247117 0.6485328394782787 3.1620327818972256 -43.28239593897002 -1.7894988890277825 18.730417811475878 3.4967680045195677 -10.676926314704636 55.58913521236814 0 0 0 0 0 0 0 0 0 0 0 0 0 0 0 0 0 0 0 0 0 0 0 0 0 0 0 0 0 0 0 0 0 0 0 0 0 0 0 0 0 0 0 0 0 0 -36.09300708316134 0 0 -1.2765429932992864 0 0 0 0 0 0 0 0 0 0 -20.49780941639645 -15.333496033915983 4.765649644394561 63.72955596887024 0.4585123445937788 -1.3106420061730337 50.70826229326584 1.253954212250926 -21.514860363307488 -11.646291767194937 -9.726100172613647 -53.452988791740395 0 0 0 0 0 0 0 0 0 0 0 0 0 0 0 0 0 0 0 0 0 0 0 0 0 0 0 0 0 0 0 0 0 0 0 0 0 0 0 0 0 0 0 0 0
-0.14592112041731564 -8.020238220326078 -5.451926283307216 0.02205965255842789 71.99674449604836 0.009542587553187874 42.30471172894978 -47.277178003993946 10.661799417471125 51.60020805250308 31.659603019204187 54.31104815610862 -22.182793824651892 54.369756411516256 1.9030299014307404 0 0 0 -42.33498801117847 -47.28520729186019 -10.648480029395765 -51.60054451806255 31.64930431886758 -54.32610492048601 22.19710892185265 54.36311496362745 -1.9210396846226396 0 0 0 -0.06832985067624282 -17.423124618410057 -0.06986380284335132 -0.9723878219519861 53.18913981664634 -1.135524060623349 0 0 0 22.424461509025544 -14.426114255900343 -5.377933410717434 -65.54512420077707 0.6485319322856654 3.1620336344256526 -43.28239593897002 -1.7894988890277825 18.730417811475878 3.4967680045195677 -10.676926314704636 55.58913521236814 0 0 0 0 0 0 0 0 0 0 0 0 0 0 0 0 0 0 0 0 0 0 0 0 0 0 0 0 0 0 0 0 0 0 0 0 0 0 0 0 0 0 0 0 0 0 -34.988411810773194 0 0 -2.3538880932394437 0 0 0 0 0 0 0 0 0 0 -20.55876026362668 -15.198835766336481 4.811520431670169 63.72955596887024 0.4585123445937788 -1.3106420061730337 50.70826229326584 1.253954212250926 -21.514860363307488 -11.646291767194937 -9.726100172613647 -53.452988791740395 0 0 0 0 0 0 0 0 0 0 0 0 0 0 0 0 0 0 0 0 0 0 0 0 0 0 0 0 0 0 0 0 0 0 0 0 0 0 0 0 0 0 0 0 0
-0.14592112041731564 -8.012086878654241 -5.457032177876544 0.02205965255842789 71.99674449604836 0.009542587553187874 42.33066068123374 -47.40187778371289 10.543749452044093 51.60020805250308 31.65959900702234 54.31104489743047 -22.182793824651892 54.369756411516256 1.903030622234341 0 0 0 -42.3607950327133 -47.41005222031908 -10.53062210998934 -51.60054451806255 31.64930431886758 -54.32610492048601 22.19710892185265 54.36311496362745 -1.9210395015583612 0 0 0 -0.06823605142813867 -17.11769261365063 -0.07022713893321693 -0.961215569422788 52.689792848783114 -1.1215309831056461 0 0 0 22.516262621564803 -14.297660628468615 -5.431803492268609 -65.5451165690829 0.6485310784573234 3.1620342738219716 -43.28239593897002 -1.7894988890277825 18.730417811475878 3.4967680045195677 -10.676926314704636 55.58913521236814 0 0 0 0 0 0 0 0 0 0 0 0 0 0 0 0 0 0 0 0 0 0 0 0 0 0 0 0 0 0 0 0 0 0 0 0 0 0 0 0 0 0 0 0 0 0 -33.88381847968828 0 0 -3.431233068358096 0 0 0 0 0 0 0 0 0 0 -20.61956130667565 -15.064128801277365 4.857214005936508 63.72955596887024 0.4585123445937788 -1.3106420061730337 50.70826229326584 1.253954212250926 -21.514860363307488 -11.646290918804143 -9.726098440165208 -53.452988791740395 0 0 0 0 0 0 0 0 0 0 0 0 0 0 0 0 0 0 0 0 0 0 0 0 0 0 0 0 0 0 0 0 0 0 0 0 0 0 0 0 0 0 0 0 0
-0.14592112041731564 -7.995784463702838 -5.467243967015198 0.02205965255842789 71.99674449604836 0.009542587553187874 42.383903874195305 -47.65119935334792 10.306522377642292 51.60020805250308 31.65959900702234 54.31104489743047 -22.182793824651892 54.369756411516256 1.903030622234341 0 0 0 -42.41374064042605 -47.65965612569099 -10.293779245837268 -51.60054451806255 31.64930431886758 -54.32610492048601 22.19710892185265 54.36311496362745 -1.9210395015583612 0 0 0 -0.0680561990143388 -16.50661864470911 -0.07095087076919672 -0.9398136735732995 51.69016715793645 -1.0944575196047495 0 0 0 22.699354429788485 -14.040481583975085 -5.538824812456659 -65.5451165690829 0.6485310784573234 3.1620342738219716 -43.28239593897002 -1.7894988890277825 18.730417811475878 3.4967682213189386 -10.676925445889617 55.58913521236814 0 0 0 0 0 0 0 0 0 0 0 0 0 0 0 0 0 0 0 0 0 0 0 0 0 0 0 0 0 0 0 0 0 0 0 0 0 0 0 0 0 0 0 0 0 0 -31.66456622082107 0 0 -5.595243957929093 0 0 0 0 0 0 0 0 0 0 -20.740728746895297 -14.794556263818134 4.948078108098127 63.72955596887024 0.4585123445937788 -1.3106420061730337 50.70826229326584 1.253954212250926 -21.514860363307488 -11.646290918804143 -9.726098440165208 -53.452988791740395 0 0 0 0 0 0 0 0 0 0 0 0 0 0 0 0 0 0 0 0 0 0 0 0 0 0 0 0 0 0 0 0 0 0 0 0 0 0 0 0 0 0 0 0 0
-0.14592112041731564 -7.987633122031001 -5.472349861584524 0.02205965255842789 71.99674449604836 0.009542587553187874 42.4112050633059 -47.775821956684844 10.187346126480772 51.60020805250308 31.659603019204187 54.31104815610862 -22.182793824651892 54.369756411516256 1.9030293521432806 0 0 0 -42.44089330168145 -47.784426046605866 -10.17479824034006 -51.60054451806255 31.64930431886758 -54.32610654995203 22.19710892185265 54.36311496362745 -1.9210395015583612 0 0 0 -0.06796908782653907 -16.2009955960854 -0.07131150273900633 -0.9295619445862131 51.18997619388489 -1.0813547144078826 0 0 0 22.790646814525193 -13.911756939772925 -5.591977568972438 -65.5451165690829 0.6485310784573234 3.1620342738219716 -43.28239828148333 -1.7894987822540034 18.730417811475878 3.4967677877201964 -10.676926314704636 55.58913807947985 0 0 0 0 0 0 0 0 0 0 0 0 0 0 0 0 0 0 0 0 0 0 0 0 0 0 0 0 0 0 0 0 0 0 0 0 0 0 0 0 0 0 0 0 0 0 -30.550715742984607 0 0 -6.681165872314515 0 0 0 0 0 0 0 0 0 0 -20.801096093131317 -14.659691165159357 4.993251088387311 63.72955596887024 0.4585123445937788 -1.3106420061730337 50.70826229326584 1.253954212250926 -21.514861952257657 -11.646290070413345 -9.726099306389425 -53.452988791740395 0 0 0 0 0 0 0 0 0 0 0 0 0 0 0 0 0 0 0 0 0 0 0 0 0 0 0 0 0 0 0 0 0 0 0 0 0 0 0 0 0 0 0 0 0
